<?xml version="1.0" standalone="no"?>
<!DOCTYPE svg PUBLIC "-//W3C//DTD SVG 1.1//EN" "http://www.w3.org/Graphics/SVG/1.1/DTD/svg11.dtd">
<svg width="400" height="300" viewBox="0 -300 400 300" xmlns="http://www.w3.org/2000/svg" version="1.1">
<title>OpenSCAD Model</title>
<path d="
M 400,-300 L 0,-300 L 0,-0 L 400,-0 z
M 74.2522,-232.93 L 72.9305,-234.252 L 72.3131,-236.016 L 72.5224,-237.874 L 73.5168,-239.457 L 75.0995,-240.451
 L 76.957,-240.66 L 78.7212,-240.043 L 80.0429,-238.721 L 80.6603,-236.957 L 80.451,-235.1 L 79.4565,-233.517
 L 77.8739,-232.522 L 76.0164,-232.313 z
M 110.739,-196.444 L 109.417,-197.765 L 108.8,-199.53 L 109.009,-201.387 L 110.004,-202.97 L 111.586,-203.964
 L 113.444,-204.174 L 115.208,-203.556 L 116.53,-202.235 L 117.147,-200.47 L 116.938,-198.613 L 115.943,-197.03
 L 114.361,-196.036 L 112.503,-195.826 z
M 37.7655,-196.444 L 36.4438,-197.765 L 35.8264,-199.53 L 36.0357,-201.387 L 37.0302,-202.97 L 38.6128,-203.964
 L 40.4702,-204.174 L 42.2345,-203.556 L 43.5562,-202.235 L 44.1736,-200.47 L 43.9643,-198.613 L 42.9698,-197.03
 L 41.3872,-196.036 L 39.5297,-195.826 z
M 74.2522,-159.957 L 72.9305,-161.279 L 72.3131,-163.043 L 72.5224,-164.9 L 73.5168,-166.483 L 75.0995,-167.478
 L 76.957,-167.687 L 78.7212,-167.07 L 80.0429,-165.748 L 80.6603,-163.984 L 80.451,-162.126 L 79.4565,-160.543
 L 77.8739,-159.549 L 76.0164,-159.34 z
M 39.0654,-97.5053 L 37.3813,-98.3163 L 36.2159,-99.7777 L 35.8,-101.6 L 36.2159,-103.422 L 37.3813,-104.884
 L 39.0654,-105.695 L 40.9346,-105.695 L 42.6187,-104.884 L 43.7841,-103.422 L 44.2,-101.6 L 43.7841,-99.7777
 L 42.6187,-98.3163 L 40.9346,-97.5053 z
M 90.6654,-97.5053 L 88.9813,-98.3163 L 87.8159,-99.7777 L 87.4,-101.6 L 87.8159,-103.422 L 88.9813,-104.884
 L 90.6654,-105.695 L 92.5346,-105.695 L 94.2186,-104.884 L 95.3841,-103.422 L 95.8,-101.6 L 95.3841,-99.7777
 L 94.2186,-98.3163 L 92.5346,-97.5053 z
M 39.0654,-45.9053 L 37.3813,-46.7163 L 36.2159,-48.1777 L 35.8,-50 L 36.2159,-51.8223 L 37.3813,-53.2837
 L 39.0654,-54.0947 L 40.9346,-54.0947 L 42.6187,-53.2837 L 43.7841,-51.8223 L 44.2,-50 L 43.7841,-48.1777
 L 42.6187,-46.7163 L 40.9346,-45.9053 z
M 90.6654,-45.9053 L 88.9813,-46.7163 L 87.8159,-48.1777 L 87.4,-50 L 87.8159,-51.8223 L 88.9813,-53.2837
 L 90.6654,-54.0947 L 92.5346,-54.0947 L 94.2186,-53.2837 L 95.3841,-51.8223 L 95.8,-50 L 95.3841,-48.1777
 L 94.2186,-46.7163 L 92.5346,-45.9053 z
" stroke="black" fill="lightgray" stroke-width="0.5"/></svg>
