<?xml version="1.0" encoding="UTF-8" standalone="no"?>
<!DOCTYPE svg PUBLIC "-//W3C//DTD SVG 1.1//EN"
 "http://www.w3.org/Graphics/SVG/1.1/DTD/svg11.dtd">
<!-- Generated by graphviz version 2.38.0 (20140413.2041)
 -->
<!-- Title: SC Pages: 1 -->
<svg width="485pt" height="427pt"
 viewBox="0.00 0.00 485.46 427.00" xmlns="http://www.w3.org/2000/svg" xmlns:xlink="http://www.w3.org/1999/xlink">
<g id="graph0" class="graph" transform="scale(1 1) rotate(0) translate(4 423)">
<title>SC</title>
<polygon fill="white" stroke="none" points="-4,4 -4,-423 481.458,-423 481.458,4 -4,4"/>
<!-- Ausgangspose -->
<g id="node1" class="node"><title>Ausgangspose</title>
<polygon fill="none" stroke="black" points="140.024,-419 12.8157,-419 12.8157,-383 140.024,-383 140.024,-419"/>
<text text-anchor="middle" x="76.4199" y="-396.8" font-family="Times,serif" font-size="14.00">Ausgangspose (AP)</text>
</g>
<!-- Bewegung -->
<g id="node2" class="node"><title>Bewegung</title>
<text text-anchor="middle" x="237.42" y="-403.8" font-family="Times,serif" font-size="14.00">Veränderung durch</text>
<text text-anchor="middle" x="237.42" y="-389.8" font-family="Times,serif" font-size="14.00">Bewegung</text>
</g>
<!-- Ausgangspose&#45;&gt;Bewegung -->
<g id="edge1" class="edge"><title>Ausgangspose&#45;&gt;Bewegung</title>
<path fill="none" stroke="black" stroke-dasharray="1,5" d="M140.254,-401C152.147,-401 164.039,-401 175.932,-401"/>
</g>
<!-- Scan_AP -->
<g id="node8" class="node"><title>Scan_AP</title>
<ellipse fill="none" stroke="black" cx="76.4199" cy="-301" rx="76.3398" ry="18"/>
<text text-anchor="middle" x="76.4199" y="-296.8" font-family="Times,serif" font-size="14.00">Sensorkoordinaten</text>
</g>
<!-- Ausgangspose&#45;&gt;Scan_AP -->
<g id="edge4" class="edge"><title>Ausgangspose&#45;&gt;Scan_AP</title>
<path fill="none" stroke="black" d="M76.4199,-382.93C76.4199,-368.125 76.4199,-346.432 76.4199,-329.231"/>
<polygon fill="black" stroke="black" points="79.92,-329.203 76.4199,-319.203 72.92,-329.204 79.92,-329.203"/>
<text text-anchor="middle" x="124.439" y="-353.8" font-family="Times,serif" font-size="14.00"> Umgebungsscan</text>
<text text-anchor="middle" x="124.439" y="-339.8" font-family="Times,serif" font-size="14.00">ausgeführt</text>
</g>
<!-- Endpose -->
<g id="node3" class="node"><title>Endpose</title>
<polygon fill="none" stroke="black" points="428.297,-419 334.543,-419 334.543,-383 428.297,-383 428.297,-419"/>
<text text-anchor="middle" x="381.42" y="-396.8" font-family="Times,serif" font-size="14.00">Endpose (EP)</text>
</g>
<!-- Bewegung&#45;&gt;Endpose -->
<g id="edge2" class="edge"><title>Bewegung&#45;&gt;Endpose</title>
<path fill="none" stroke="black" stroke-dasharray="1,5" d="M299.014,-401C310.817,-401 322.62,-401 334.423,-401"/>
</g>
<!-- IMU -->
<g id="node6" class="node"><title>IMU</title>
<ellipse fill="none" stroke="black" cx="237.42" cy="-247" rx="27.1044" ry="18"/>
<text text-anchor="middle" x="237.42" y="-242.8" font-family="Times,serif" font-size="14.00">IMU</text>
</g>
<!-- Bewegung&#45;&gt;IMU -->
<g id="edge3" class="edge"><title>Bewegung&#45;&gt;IMU</title>
<path fill="none" stroke="black" stroke-dasharray="1,5" d="M237.42,-382.859C237.42,-353.666 237.42,-294.62 237.42,-265.311"/>
</g>
<!-- Scan_EP -->
<g id="node9" class="node"><title>Scan_EP</title>
<ellipse fill="none" stroke="black" cx="381.42" cy="-301" rx="76.3398" ry="18"/>
<text text-anchor="middle" x="381.42" y="-296.8" font-family="Times,serif" font-size="14.00">Sensorkoordinaten</text>
</g>
<!-- Endpose&#45;&gt;Scan_EP -->
<g id="edge5" class="edge"><title>Endpose&#45;&gt;Scan_EP</title>
<path fill="none" stroke="black" d="M381.42,-382.93C381.42,-368.125 381.42,-346.432 381.42,-329.231"/>
<polygon fill="black" stroke="black" points="384.92,-329.203 381.42,-319.203 377.92,-329.204 384.92,-329.203"/>
<text text-anchor="middle" x="429.439" y="-353.8" font-family="Times,serif" font-size="14.00"> Umgebungsscan</text>
<text text-anchor="middle" x="429.439" y="-339.8" font-family="Times,serif" font-size="14.00">ausgeführt</text>
</g>
<!-- MontagePose -->
<g id="node4" class="node"><title>MontagePose</title>
<polygon fill="none" stroke="black" points="282.289,-36 150.551,-36 150.551,-0 282.289,-0 282.289,-36"/>
<text text-anchor="middle" x="216.42" y="-13.8" font-family="Times,serif" font-size="14.00">Sensorpose zur IMU</text>
</g>
<!-- ICP -->
<g id="node5" class="node"><title>ICP</title>
<polygon fill="none" stroke="black" points="205.42,-181.544 205.42,-196.456 189.604,-207 167.236,-207 151.42,-196.456 151.42,-181.544 167.236,-171 189.604,-171 205.42,-181.544"/>
<polygon fill="none" stroke="black" points="209.42,-179.403 209.42,-198.597 190.815,-211 166.025,-211 147.42,-198.597 147.42,-179.403 166.025,-167 190.815,-167 209.42,-179.403"/>
<text text-anchor="middle" x="178.42" y="-184.8" font-family="Times,serif" font-size="14.00">ICP</text>
</g>
<!-- Abgleich -->
<g id="node7" class="node"><title>Abgleich</title>
<polygon fill="none" stroke="black" points="262.47,-100.544 262.47,-115.456 235.495,-126 197.345,-126 170.369,-115.456 170.369,-100.544 197.345,-90 235.495,-90 262.47,-100.544"/>
<polygon fill="none" stroke="black" points="266.473,-97.8135 266.473,-118.187 236.249,-130 196.59,-130 166.367,-118.187 166.367,-97.8135 196.59,-86 236.249,-86 266.473,-97.8135"/>
<text text-anchor="middle" x="216.42" y="-103.8" font-family="Times,serif" font-size="14.00">Abgleich</text>
</g>
<!-- ICP&#45;&gt;Abgleich -->
<g id="edge8" class="edge"><title>ICP&#45;&gt;Abgleich</title>
<path fill="none" stroke="black" d="M188.603,-166.829C192.65,-158.417 197.382,-148.579 201.784,-139.428"/>
<polygon fill="black" stroke="black" points="205.028,-140.758 206.208,-130.229 198.72,-137.723 205.028,-140.758"/>
</g>
<!-- IMU&#45;&gt;Abgleich -->
<g id="edge9" class="edge"><title>IMU&#45;&gt;Abgleich</title>
<path fill="none" stroke="black" d="M234.803,-228.926C231.41,-206.792 225.429,-167.776 221.213,-140.268"/>
<polygon fill="black" stroke="black" points="224.667,-139.702 219.692,-130.347 217.748,-140.762 224.667,-139.702"/>
</g>
<!-- Abgleich&#45;&gt;MontagePose -->
<g id="edge10" class="edge"><title>Abgleich&#45;&gt;MontagePose</title>
<path fill="none" stroke="black" d="M216.42,-85.6977C216.42,-73.8552 216.42,-58.992 216.42,-46.3037"/>
<polygon fill="black" stroke="black" points="219.92,-46.2711 216.42,-36.2711 212.92,-46.2712 219.92,-46.2711"/>
<text text-anchor="middle" x="245.773" y="-56.8" font-family="Times,serif" font-size="14.00"> entspricht</text>
</g>
<!-- Scan_AP&#45;&gt;ICP -->
<g id="edge6" class="edge"><title>Scan_AP&#45;&gt;ICP</title>
<path fill="none" stroke="black" d="M91.9115,-283.293C108.516,-265.387 135.089,-236.729 154.407,-215.897"/>
<polygon fill="black" stroke="black" points="157.186,-218.047 161.419,-208.334 152.053,-213.287 157.186,-218.047"/>
</g>
<!-- Scan_EP&#45;&gt;ICP -->
<g id="edge7" class="edge"><title>Scan_EP&#45;&gt;ICP</title>
<path fill="none" stroke="black" d="M310.93,-293.74C267.675,-288.518 217.572,-279.532 201.42,-265 189.163,-253.972 183.355,-236.602 180.637,-221.354"/>
<polygon fill="black" stroke="black" points="184.073,-220.653 179.209,-211.241 177.142,-221.632 184.073,-220.653"/>
</g>
</g>
</svg>
