<?xml version="1.0" encoding="UTF-8" standalone="no"?>
<!DOCTYPE svg PUBLIC "-//W3C//DTD SVG 1.1//EN"
 "http://www.w3.org/Graphics/SVG/1.1/DTD/svg11.dtd">
<!-- Generated by graphviz version 2.38.0 (20140413.2041)
 -->
<!-- Title: SC Pages: 1 -->
<svg width="466pt" height="511pt"
 viewBox="0.00 0.00 465.84 511.00" xmlns="http://www.w3.org/2000/svg" xmlns:xlink="http://www.w3.org/1999/xlink">
<g id="graph0" class="graph" transform="scale(1 1) rotate(0) translate(4 507)">
<title>SC</title>
<polygon fill="white" stroke="none" points="-4,4 -4,-507 461.84,-507 461.84,4 -4,4"/>
<!-- Ausgangspose -->
<g id="node1" class="node"><title>Ausgangspose</title>
<polygon fill="none" stroke="black" points="140.024,-503 12.8157,-503 12.8157,-467 140.024,-467 140.024,-503"/>
<text text-anchor="middle" x="76.4199" y="-480.8" font-family="Times,serif" font-size="14.00">Ausgangspose (AP)</text>
</g>
<!-- Bewegung -->
<g id="node2" class="node"><title>Bewegung</title>
<text text-anchor="middle" x="237.42" y="-487.8" font-family="Times,serif" font-size="14.00">Veränderung durch</text>
<text text-anchor="middle" x="237.42" y="-473.8" font-family="Times,serif" font-size="14.00">Bewegung</text>
</g>
<!-- Ausgangspose&#45;&gt;Bewegung -->
<g id="edge1" class="edge"><title>Ausgangspose&#45;&gt;Bewegung</title>
<path fill="none" stroke="black" stroke-dasharray="1,5" d="M140.254,-485C152.147,-485 164.039,-485 175.932,-485"/>
</g>
<!-- Scan_AP -->
<g id="node8" class="node"><title>Scan_AP</title>
<ellipse fill="none" stroke="black" cx="76.4199" cy="-412" rx="68.6219" ry="18"/>
<text text-anchor="middle" x="76.4199" y="-407.8" font-family="Times,serif" font-size="14.00">Umgebungsscan</text>
</g>
<!-- Ausgangspose&#45;&gt;Scan_AP -->
<g id="edge4" class="edge"><title>Ausgangspose&#45;&gt;Scan_AP</title>
<path fill="none" stroke="black" d="M76.4199,-466.813C76.4199,-458.789 76.4199,-449.047 76.4199,-440.069"/>
<polygon fill="black" stroke="black" points="79.92,-440.029 76.4199,-430.029 72.92,-440.029 79.92,-440.029"/>
</g>
<!-- Endpose -->
<g id="node3" class="node"><title>Endpose</title>
<polygon fill="none" stroke="black" points="428.297,-503 334.543,-503 334.543,-467 428.297,-467 428.297,-503"/>
<text text-anchor="middle" x="381.42" y="-480.8" font-family="Times,serif" font-size="14.00">Endpose (EP)</text>
</g>
<!-- Bewegung&#45;&gt;Endpose -->
<g id="edge2" class="edge"><title>Bewegung&#45;&gt;Endpose</title>
<path fill="none" stroke="black" stroke-dasharray="1,5" d="M299.014,-485C310.817,-485 322.62,-485 334.423,-485"/>
</g>
<!-- IMU -->
<g id="node6" class="node"><title>IMU</title>
<ellipse fill="none" stroke="black" cx="237.42" cy="-412" rx="27.1044" ry="18"/>
<text text-anchor="middle" x="237.42" y="-407.8" font-family="Times,serif" font-size="14.00">IMU</text>
</g>
<!-- Bewegung&#45;&gt;IMU -->
<g id="edge3" class="edge"><title>Bewegung&#45;&gt;IMU</title>
<path fill="none" stroke="black" stroke-dasharray="1,5" d="M237.42,-466.813C237.42,-455.65 237.42,-441.16 237.42,-430.029"/>
</g>
<!-- Scan_EP -->
<g id="node11" class="node"><title>Scan_EP</title>
<ellipse fill="none" stroke="black" cx="381.42" cy="-412" rx="68.6219" ry="18"/>
<text text-anchor="middle" x="381.42" y="-407.8" font-family="Times,serif" font-size="14.00">Umgebungsscan</text>
</g>
<!-- Endpose&#45;&gt;Scan_EP -->
<g id="edge5" class="edge"><title>Endpose&#45;&gt;Scan_EP</title>
<path fill="none" stroke="black" d="M381.42,-466.813C381.42,-458.789 381.42,-449.047 381.42,-440.069"/>
<polygon fill="black" stroke="black" points="384.92,-440.029 381.42,-430.029 377.92,-440.029 384.92,-440.029"/>
</g>
<!-- MontagePose -->
<g id="node4" class="node"><title>MontagePose</title>
<polygon fill="none" stroke="black" points="282.289,-36 150.551,-36 150.551,-0 282.289,-0 282.289,-36"/>
<text text-anchor="middle" x="216.42" y="-13.8" font-family="Times,serif" font-size="14.00">Sensorpose zur IMU</text>
</g>
<!-- ICP -->
<g id="node5" class="node"><title>ICP</title>
<polygon fill="none" stroke="black" points="205.42,-181.544 205.42,-196.456 189.604,-207 167.236,-207 151.42,-196.456 151.42,-181.544 167.236,-171 189.604,-171 205.42,-181.544"/>
<polygon fill="none" stroke="black" points="209.42,-179.403 209.42,-198.597 190.815,-211 166.025,-211 147.42,-198.597 147.42,-179.403 166.025,-167 190.815,-167 209.42,-179.403"/>
<text text-anchor="middle" x="178.42" y="-184.8" font-family="Times,serif" font-size="14.00">ICP</text>
</g>
<!-- Abgleich -->
<g id="node7" class="node"><title>Abgleich</title>
<polygon fill="none" stroke="black" points="262.47,-100.544 262.47,-115.456 235.495,-126 197.345,-126 170.369,-115.456 170.369,-100.544 197.345,-90 235.495,-90 262.47,-100.544"/>
<polygon fill="none" stroke="black" points="266.473,-97.8135 266.473,-118.187 236.249,-130 196.59,-130 166.367,-118.187 166.367,-97.8135 196.59,-86 236.249,-86 266.473,-97.8135"/>
<text text-anchor="middle" x="216.42" y="-103.8" font-family="Times,serif" font-size="14.00">Abgleich</text>
</g>
<!-- ICP&#45;&gt;Abgleich -->
<g id="edge12" class="edge"><title>ICP&#45;&gt;Abgleich</title>
<path fill="none" stroke="black" d="M188.603,-166.829C192.65,-158.417 197.382,-148.579 201.784,-139.428"/>
<polygon fill="black" stroke="black" points="205.028,-140.758 206.208,-130.229 198.72,-137.723 205.028,-140.758"/>
</g>
<!-- IMU&#45;&gt;Abgleich -->
<g id="edge15" class="edge"><title>IMU&#45;&gt;Abgleich</title>
<path fill="none" stroke="black" d="M237.42,-393.784C237.42,-379.405 237.42,-358.366 237.42,-340 237.42,-340 237.42,-340 237.42,-188 237.42,-171.784 233.236,-154.305 228.603,-139.921"/>
<polygon fill="black" stroke="black" points="231.771,-138.371 225.204,-130.057 225.153,-140.651 231.771,-138.371"/>
</g>
<!-- Scan_zu_SK1 -->
<g id="node9" class="node"><title>Scan_zu_SK1</title>
<polygon fill="none" stroke="black" points="76.4199,-357 49.4199,-339 76.4199,-321 103.42,-339 76.4199,-357"/>
<text text-anchor="middle" x="76.4199" y="-334.8" font-family="Times,serif" font-size="14.00">1a</text>
</g>
<!-- IMU&#45;&gt;Scan_zu_SK1 -->
<g id="edge13" class="edge"><title>IMU&#45;&gt;Scan_zu_SK1</title>
<path fill="none" stroke="black" d="M215.371,-401.277C185.53,-388.117 132.44,-364.704 101.235,-350.943"/>
<polygon fill="black" stroke="black" points="102.492,-347.673 91.9303,-346.84 99.6678,-354.077 102.492,-347.673"/>
</g>
<!-- Scan_zu_SK2 -->
<g id="node12" class="node"><title>Scan_zu_SK2</title>
<polygon fill="none" stroke="black" points="381.42,-357 354.42,-339 381.42,-321 408.42,-339 381.42,-357"/>
<text text-anchor="middle" x="381.42" y="-334.8" font-family="Times,serif" font-size="14.00">1b</text>
</g>
<!-- IMU&#45;&gt;Scan_zu_SK2 -->
<g id="edge14" class="edge"><title>IMU&#45;&gt;Scan_zu_SK2</title>
<path fill="none" stroke="black" d="M258.668,-400.524C285.006,-387.538 329.779,-365.462 357.357,-351.864"/>
<polygon fill="black" stroke="black" points="359.252,-354.832 366.673,-347.271 356.157,-348.554 359.252,-354.832"/>
</g>
<!-- Abgleich&#45;&gt;MontagePose -->
<g id="edge16" class="edge"><title>Abgleich&#45;&gt;MontagePose</title>
<path fill="none" stroke="black" d="M216.42,-85.6977C216.42,-73.8552 216.42,-58.992 216.42,-46.3037"/>
<polygon fill="black" stroke="black" points="219.92,-46.2711 216.42,-36.2711 212.92,-46.2712 219.92,-46.2711"/>
<text text-anchor="middle" x="245.773" y="-56.8" font-family="Times,serif" font-size="14.00"> entspricht</text>
</g>
<!-- Scan_AP&#45;&gt;Scan_zu_SK1 -->
<g id="edge6" class="edge"><title>Scan_AP&#45;&gt;Scan_zu_SK1</title>
<path fill="none" stroke="black" d="M76.4199,-393.813C76.4199,-385.789 76.4199,-376.047 76.4199,-367.069"/>
<polygon fill="black" stroke="black" points="79.92,-367.029 76.4199,-357.029 72.92,-367.029 79.92,-367.029"/>
</g>
<!-- Scan_AP_SK -->
<g id="node10" class="node"><title>Scan_AP_SK</title>
<ellipse fill="none" stroke="black" cx="76.4199" cy="-266" rx="76.3398" ry="18"/>
<text text-anchor="middle" x="76.4199" y="-261.8" font-family="Times,serif" font-size="14.00">Sensorkoordinaten</text>
</g>
<!-- Scan_zu_SK1&#45;&gt;Scan_AP_SK -->
<g id="edge7" class="edge"><title>Scan_zu_SK1&#45;&gt;Scan_AP_SK</title>
<path fill="none" stroke="black" d="M76.4199,-320.813C76.4199,-312.789 76.4199,-303.047 76.4199,-294.069"/>
<polygon fill="black" stroke="black" points="79.92,-294.029 76.4199,-284.029 72.92,-294.029 79.92,-294.029"/>
</g>
<!-- Scan_AP_SK&#45;&gt;ICP -->
<g id="edge8" class="edge"><title>Scan_AP_SK&#45;&gt;ICP</title>
<path fill="none" stroke="black" d="M98.5523,-248.726C113.421,-237.793 133.171,-223.272 149.31,-211.404"/>
<polygon fill="black" stroke="black" points="151.393,-214.217 157.376,-205.473 147.246,-208.577 151.393,-214.217"/>
</g>
<!-- Scan_EP&#45;&gt;Scan_zu_SK2 -->
<g id="edge9" class="edge"><title>Scan_EP&#45;&gt;Scan_zu_SK2</title>
<path fill="none" stroke="black" d="M381.42,-393.813C381.42,-385.789 381.42,-376.047 381.42,-367.069"/>
<polygon fill="black" stroke="black" points="384.92,-367.029 381.42,-357.029 377.92,-367.029 384.92,-367.029"/>
</g>
<!-- Scan_EP_SK -->
<g id="node13" class="node"><title>Scan_EP_SK</title>
<ellipse fill="none" stroke="black" cx="381.42" cy="-266" rx="76.3398" ry="18"/>
<text text-anchor="middle" x="381.42" y="-261.8" font-family="Times,serif" font-size="14.00">Sensorkoordinaten</text>
</g>
<!-- Scan_zu_SK2&#45;&gt;Scan_EP_SK -->
<g id="edge10" class="edge"><title>Scan_zu_SK2&#45;&gt;Scan_EP_SK</title>
<path fill="none" stroke="black" d="M381.42,-320.813C381.42,-312.789 381.42,-303.047 381.42,-294.069"/>
<polygon fill="black" stroke="black" points="384.92,-294.029 381.42,-284.029 377.92,-294.029 384.92,-294.029"/>
</g>
<!-- Scan_EP_SK&#45;&gt;ICP -->
<g id="edge11" class="edge"><title>Scan_EP_SK&#45;&gt;ICP</title>
<path fill="none" stroke="black" d="M342.279,-250.539C306.052,-237.155 252.52,-217.377 216.602,-204.107"/>
<polygon fill="black" stroke="black" points="217.56,-200.73 206.967,-200.547 215.134,-207.296 217.56,-200.73"/>
</g>
</g>
</svg>
