<?xml version="1.0" encoding="UTF-8" standalone="no"?>
<!DOCTYPE svg PUBLIC "-//W3C//DTD SVG 1.1//EN"
 "http://www.w3.org/Graphics/SVG/1.1/DTD/svg11.dtd">
<!-- Generated by graphviz version 2.38.0 (20140413.2041)
 -->
<!-- Title: WC Pages: 1 -->
<svg width="545pt" height="722pt"
 viewBox="0.00 0.00 545.00 722.00" xmlns="http://www.w3.org/2000/svg" xmlns:xlink="http://www.w3.org/1999/xlink">
<g id="graph0" class="graph" transform="scale(1 1) rotate(0) translate(4 718)">
<title>WC</title>
<polygon fill="white" stroke="none" points="-4,4 -4,-718 541,-718 541,4 -4,4"/>
<!-- Scan_AP -->
<g id="node1" class="node"><title>Scan_AP</title>
<ellipse fill="none" stroke="black" cx="116" cy="-623" rx="68.6219" ry="18"/>
<text text-anchor="middle" x="116" y="-618.8" font-family="Times,serif" font-size="14.00">Umgebungsscan</text>
</g>
<!-- Scan_zu_SK1 -->
<g id="node6" class="node"><title>Scan_zu_SK1</title>
<polygon fill="none" stroke="black" points="116,-568 89,-550 116,-532 143,-550 116,-568"/>
<text text-anchor="middle" x="116" y="-545.8" font-family="Times,serif" font-size="14.00">1a</text>
</g>
<!-- Scan_AP&#45;&gt;Scan_zu_SK1 -->
<g id="edge11" class="edge"><title>Scan_AP&#45;&gt;Scan_zu_SK1</title>
<path fill="none" stroke="black" d="M116,-604.813C116,-596.789 116,-587.047 116,-578.069"/>
<polygon fill="black" stroke="black" points="119.5,-578.029 116,-568.029 112.5,-578.029 119.5,-578.029"/>
</g>
<!-- Scan_AP_SK -->
<g id="node2" class="node"><title>Scan_AP_SK</title>
<ellipse fill="none" stroke="black" cx="116" cy="-477" rx="76.3398" ry="18"/>
<text text-anchor="middle" x="116" y="-472.8" font-family="Times,serif" font-size="14.00">Sensorkoordinaten</text>
</g>
<!-- SK_zu_TK1 -->
<g id="node7" class="node"><title>SK_zu_TK1</title>
<polygon fill="none" stroke="black" points="116,-422 89,-404 116,-386 143,-404 116,-422"/>
<text text-anchor="middle" x="116" y="-399.8" font-family="Times,serif" font-size="14.00">2a</text>
</g>
<!-- Scan_AP_SK&#45;&gt;SK_zu_TK1 -->
<g id="edge13" class="edge"><title>Scan_AP_SK&#45;&gt;SK_zu_TK1</title>
<path fill="none" stroke="black" d="M116,-458.813C116,-450.789 116,-441.047 116,-432.069"/>
<polygon fill="black" stroke="black" points="119.5,-432.029 116,-422.029 112.5,-432.029 119.5,-432.029"/>
</g>
<!-- Scan_AP_TK -->
<g id="node3" class="node"><title>Scan_AP_TK</title>
<ellipse fill="none" stroke="black" cx="116" cy="-331" rx="75.7076" ry="18"/>
<text text-anchor="middle" x="116" y="-326.8" font-family="Times,serif" font-size="14.00">Trägerkoordinaten</text>
</g>
<!-- TK_zu_WK1 -->
<g id="node8" class="node"><title>TK_zu_WK1</title>
<polygon fill="none" stroke="black" points="116,-276 89,-258 116,-240 143,-258 116,-276"/>
<text text-anchor="middle" x="116" y="-253.8" font-family="Times,serif" font-size="14.00">3a</text>
</g>
<!-- Scan_AP_TK&#45;&gt;TK_zu_WK1 -->
<g id="edge15" class="edge"><title>Scan_AP_TK&#45;&gt;TK_zu_WK1</title>
<path fill="none" stroke="black" d="M116,-312.813C116,-304.789 116,-295.047 116,-286.069"/>
<polygon fill="black" stroke="black" points="119.5,-286.029 116,-276.029 112.5,-286.029 119.5,-286.029"/>
</g>
<!-- Scan_AP_WK -->
<g id="node4" class="node"><title>Scan_AP_WK</title>
<ellipse fill="none" stroke="black" cx="116" cy="-185" rx="88.4347" ry="18"/>
<text text-anchor="middle" x="116" y="-180.8" font-family="Times,serif" font-size="14.00">Weltkoordinaten (rel.)</text>
</g>
<!-- ICP -->
<g id="node11" class="node"><title>ICP</title>
<polygon fill="none" stroke="black" points="220,-100.544 220,-115.456 204.184,-126 181.816,-126 166,-115.456 166,-100.544 181.816,-90 204.184,-90 220,-100.544"/>
<polygon fill="none" stroke="black" points="224,-98.4034 224,-117.597 205.395,-130 180.605,-130 162,-117.597 162,-98.4034 180.605,-86 205.395,-86 224,-98.4034"/>
<text text-anchor="middle" x="193" y="-103.8" font-family="Times,serif" font-size="14.00">ICP</text>
</g>
<!-- Scan_AP_WK&#45;&gt;ICP -->
<g id="edge17" class="edge"><title>Scan_AP_WK&#45;&gt;ICP</title>
<path fill="none" stroke="black" d="M133.472,-166.981C143.567,-157.149 156.444,-144.607 167.637,-133.704"/>
<polygon fill="black" stroke="black" points="170.341,-135.956 175.062,-126.472 165.457,-130.942 170.341,-135.956"/>
</g>
<!-- Ausgangspose -->
<g id="node5" class="node"><title>Ausgangspose</title>
<polygon fill="none" stroke="black" points="179.604,-714 52.3959,-714 52.3959,-678 179.604,-678 179.604,-714"/>
<text text-anchor="middle" x="116" y="-691.8" font-family="Times,serif" font-size="14.00">Ausgangspose (AP)</text>
</g>
<!-- Ausgangspose&#45;&gt;Scan_AP -->
<g id="edge4" class="edge"><title>Ausgangspose&#45;&gt;Scan_AP</title>
<path fill="none" stroke="black" d="M116,-677.813C116,-669.789 116,-660.047 116,-651.069"/>
<polygon fill="black" stroke="black" points="119.5,-651.029 116,-641.029 112.5,-651.029 119.5,-651.029"/>
</g>
<!-- Bewegung -->
<g id="node9" class="node"><title>Bewegung</title>
<text text-anchor="middle" x="277" y="-698.8" font-family="Times,serif" font-size="14.00">Veränderung durch</text>
<text text-anchor="middle" x="277" y="-684.8" font-family="Times,serif" font-size="14.00">Bewegung</text>
</g>
<!-- Ausgangspose&#45;&gt;Bewegung -->
<g id="edge1" class="edge"><title>Ausgangspose&#45;&gt;Bewegung</title>
<path fill="none" stroke="black" stroke-dasharray="1,5" d="M179.834,-696C191.727,-696 203.619,-696 215.512,-696"/>
</g>
<!-- Scan_zu_SK1&#45;&gt;Scan_AP_SK -->
<g id="edge12" class="edge"><title>Scan_zu_SK1&#45;&gt;Scan_AP_SK</title>
<path fill="none" stroke="black" d="M116,-531.813C116,-523.789 116,-514.047 116,-505.069"/>
<polygon fill="black" stroke="black" points="119.5,-505.029 116,-495.029 112.5,-505.029 119.5,-505.029"/>
</g>
<!-- SK_zu_TK1&#45;&gt;Scan_AP_TK -->
<g id="edge14" class="edge"><title>SK_zu_TK1&#45;&gt;Scan_AP_TK</title>
<path fill="none" stroke="black" d="M116,-385.813C116,-377.789 116,-368.047 116,-359.069"/>
<polygon fill="black" stroke="black" points="119.5,-359.029 116,-349.029 112.5,-359.029 119.5,-359.029"/>
</g>
<!-- TK_zu_WK1&#45;&gt;Scan_AP_WK -->
<g id="edge16" class="edge"><title>TK_zu_WK1&#45;&gt;Scan_AP_WK</title>
<path fill="none" stroke="black" d="M116,-239.813C116,-231.789 116,-222.047 116,-213.069"/>
<polygon fill="black" stroke="black" points="119.5,-213.029 116,-203.029 112.5,-213.029 119.5,-213.029"/>
</g>
<!-- IMU -->
<g id="node10" class="node"><title>IMU</title>
<ellipse fill="none" stroke="black" cx="277" cy="-623" rx="27.1044" ry="18"/>
<text text-anchor="middle" x="277" y="-618.8" font-family="Times,serif" font-size="14.00">IMU</text>
</g>
<!-- Bewegung&#45;&gt;IMU -->
<g id="edge3" class="edge"><title>Bewegung&#45;&gt;IMU</title>
<path fill="none" stroke="black" stroke-dasharray="1,5" d="M277,-677.813C277,-666.65 277,-652.16 277,-641.029"/>
</g>
<!-- Endpose -->
<g id="node17" class="node"><title>Endpose</title>
<polygon fill="none" stroke="black" points="467.877,-714 374.123,-714 374.123,-678 467.877,-678 467.877,-714"/>
<text text-anchor="middle" x="421" y="-691.8" font-family="Times,serif" font-size="14.00">Endpose (EP)</text>
</g>
<!-- Bewegung&#45;&gt;Endpose -->
<g id="edge2" class="edge"><title>Bewegung&#45;&gt;Endpose</title>
<path fill="none" stroke="black" stroke-dasharray="1,5" d="M338.594,-696C350.397,-696 362.2,-696 374.003,-696"/>
</g>
<!-- IMU&#45;&gt;Scan_zu_SK1 -->
<g id="edge6" class="edge"><title>IMU&#45;&gt;Scan_zu_SK1</title>
<path fill="none" stroke="black" d="M254.951,-612.277C225.11,-599.117 172.02,-575.704 140.815,-561.943"/>
<polygon fill="black" stroke="black" points="142.073,-558.673 131.51,-557.84 139.248,-565.077 142.073,-558.673"/>
</g>
<!-- IMU&#45;&gt;TK_zu_WK1 -->
<g id="edge8" class="edge"><title>IMU&#45;&gt;TK_zu_WK1</title>
<path fill="none" stroke="black" d="M266.733,-606.063C258.742,-592.115 249,-571.008 249,-551 249,-551 249,-551 249,-330 249,-284.709 188.235,-268.206 148.851,-262.267"/>
<polygon fill="black" stroke="black" points="149.243,-258.788 138.864,-260.915 148.304,-265.725 149.243,-258.788"/>
</g>
<!-- Scan_zu_SK2 -->
<g id="node18" class="node"><title>Scan_zu_SK2</title>
<polygon fill="none" stroke="black" points="421,-568 394,-550 421,-532 448,-550 421,-568"/>
<text text-anchor="middle" x="421" y="-545.8" font-family="Times,serif" font-size="14.00">1b</text>
</g>
<!-- IMU&#45;&gt;Scan_zu_SK2 -->
<g id="edge7" class="edge"><title>IMU&#45;&gt;Scan_zu_SK2</title>
<path fill="none" stroke="black" d="M298.248,-611.524C324.586,-598.538 369.359,-576.462 396.937,-562.864"/>
<polygon fill="black" stroke="black" points="398.832,-565.832 406.254,-558.271 395.737,-559.554 398.832,-565.832"/>
</g>
<!-- MontagePose -->
<g id="node12" class="node"><title>MontagePose</title>
<polygon fill="none" stroke="black" points="258.869,-36 127.131,-36 127.131,-0 258.869,-0 258.869,-36"/>
<text text-anchor="middle" x="193" y="-13.8" font-family="Times,serif" font-size="14.00">Sensorpose zur IMU</text>
</g>
<!-- ICP&#45;&gt;MontagePose -->
<g id="edge25" class="edge"><title>ICP&#45;&gt;MontagePose</title>
<path fill="none" stroke="black" stroke-dasharray="1,5" d="M193,-85.6977C193,-73.8552 193,-58.992 193,-46.3037"/>
<polygon fill="black" stroke="black" points="196.5,-46.2711 193,-36.2711 189.5,-46.2712 196.5,-46.2711"/>
<text text-anchor="middle" x="213.409" y="-56.8" font-family="Times,serif" font-size="14.00"> update</text>
</g>
<!-- MontagePose&#45;&gt;SK_zu_TK1 -->
<g id="edge9" class="edge"><title>MontagePose&#45;&gt;SK_zu_TK1</title>
<path fill="none" stroke="black" d="M127.12,-22.5624C71.2095,-29.5703 0,-49.7362 0,-107 0,-332 0,-332 0,-332 0,-371.908 50.5629,-390.068 84.9237,-397.801"/>
<polygon fill="black" stroke="black" points="84.4923,-401.286 94.9933,-399.879 85.907,-394.43 84.4923,-401.286"/>
</g>
<!-- SK_zu_TK2 -->
<g id="node19" class="node"><title>SK_zu_TK2</title>
<polygon fill="none" stroke="black" points="421,-422 394,-404 421,-386 448,-404 421,-422"/>
<text text-anchor="middle" x="421" y="-399.8" font-family="Times,serif" font-size="14.00">2b</text>
</g>
<!-- MontagePose&#45;&gt;SK_zu_TK2 -->
<g id="edge10" class="edge"><title>MontagePose&#45;&gt;SK_zu_TK2</title>
<path fill="none" stroke="black" d="M258.92,-22.4799C358.806,-29.5815 537,-50.2092 537,-107 537,-332 537,-332 537,-332 537,-371.908 486.437,-390.068 452.076,-397.801"/>
<polygon fill="black" stroke="black" points="451.093,-394.43 442.007,-399.879 452.508,-401.286 451.093,-394.43"/>
</g>
<!-- Scan_EP -->
<g id="node13" class="node"><title>Scan_EP</title>
<ellipse fill="none" stroke="black" cx="421" cy="-623" rx="68.6219" ry="18"/>
<text text-anchor="middle" x="421" y="-618.8" font-family="Times,serif" font-size="14.00">Umgebungsscan</text>
</g>
<!-- Scan_EP&#45;&gt;Scan_zu_SK2 -->
<g id="edge18" class="edge"><title>Scan_EP&#45;&gt;Scan_zu_SK2</title>
<path fill="none" stroke="black" d="M421,-604.813C421,-596.789 421,-587.047 421,-578.069"/>
<polygon fill="black" stroke="black" points="424.5,-578.029 421,-568.029 417.5,-578.029 424.5,-578.029"/>
</g>
<!-- Scan_EP_SK -->
<g id="node14" class="node"><title>Scan_EP_SK</title>
<ellipse fill="none" stroke="black" cx="421" cy="-477" rx="76.3398" ry="18"/>
<text text-anchor="middle" x="421" y="-472.8" font-family="Times,serif" font-size="14.00">Sensorkoordinaten</text>
</g>
<!-- Scan_EP_SK&#45;&gt;SK_zu_TK2 -->
<g id="edge20" class="edge"><title>Scan_EP_SK&#45;&gt;SK_zu_TK2</title>
<path fill="none" stroke="black" d="M421,-458.813C421,-450.789 421,-441.047 421,-432.069"/>
<polygon fill="black" stroke="black" points="424.5,-432.029 421,-422.029 417.5,-432.029 424.5,-432.029"/>
</g>
<!-- Scan_EP_TK -->
<g id="node15" class="node"><title>Scan_EP_TK</title>
<ellipse fill="none" stroke="black" cx="421" cy="-331" rx="75.7076" ry="18"/>
<text text-anchor="middle" x="421" y="-326.8" font-family="Times,serif" font-size="14.00">Trägerkoordinaten</text>
</g>
<!-- TK_zu_WK2 -->
<g id="node20" class="node"><title>TK_zu_WK2</title>
<polygon fill="none" stroke="black" points="421,-276 394,-258 421,-240 448,-258 421,-276"/>
<text text-anchor="middle" x="421" y="-253.8" font-family="Times,serif" font-size="14.00">3b</text>
</g>
<!-- Scan_EP_TK&#45;&gt;TK_zu_WK2 -->
<g id="edge22" class="edge"><title>Scan_EP_TK&#45;&gt;TK_zu_WK2</title>
<path fill="none" stroke="black" d="M421,-312.813C421,-304.789 421,-295.047 421,-286.069"/>
<polygon fill="black" stroke="black" points="424.5,-286.029 421,-276.029 417.5,-286.029 424.5,-286.029"/>
</g>
<!-- Scan_EP_WK -->
<g id="node16" class="node"><title>Scan_EP_WK</title>
<ellipse fill="none" stroke="black" cx="421" cy="-185" rx="88.4347" ry="18"/>
<text text-anchor="middle" x="421" y="-180.8" font-family="Times,serif" font-size="14.00">Weltkoordinaten (rel.)</text>
</g>
<!-- Scan_EP_WK&#45;&gt;ICP -->
<g id="edge24" class="edge"><title>Scan_EP_WK&#45;&gt;ICP</title>
<path fill="none" stroke="black" d="M376.498,-169.361C334.564,-155.567 272.343,-135.1 232.226,-121.903"/>
<polygon fill="black" stroke="black" points="233.122,-118.513 222.529,-118.713 230.934,-125.163 233.122,-118.513"/>
</g>
<!-- Endpose&#45;&gt;Scan_EP -->
<g id="edge5" class="edge"><title>Endpose&#45;&gt;Scan_EP</title>
<path fill="none" stroke="black" d="M421,-677.813C421,-669.789 421,-660.047 421,-651.069"/>
<polygon fill="black" stroke="black" points="424.5,-651.029 421,-641.029 417.5,-651.029 424.5,-651.029"/>
</g>
<!-- Scan_zu_SK2&#45;&gt;Scan_EP_SK -->
<g id="edge19" class="edge"><title>Scan_zu_SK2&#45;&gt;Scan_EP_SK</title>
<path fill="none" stroke="black" d="M421,-531.813C421,-523.789 421,-514.047 421,-505.069"/>
<polygon fill="black" stroke="black" points="424.5,-505.029 421,-495.029 417.5,-505.029 424.5,-505.029"/>
</g>
<!-- SK_zu_TK2&#45;&gt;Scan_EP_TK -->
<g id="edge21" class="edge"><title>SK_zu_TK2&#45;&gt;Scan_EP_TK</title>
<path fill="none" stroke="black" d="M421,-385.813C421,-377.789 421,-368.047 421,-359.069"/>
<polygon fill="black" stroke="black" points="424.5,-359.029 421,-349.029 417.5,-359.029 424.5,-359.029"/>
</g>
<!-- TK_zu_WK2&#45;&gt;Scan_EP_WK -->
<g id="edge23" class="edge"><title>TK_zu_WK2&#45;&gt;Scan_EP_WK</title>
<path fill="none" stroke="black" d="M421,-239.813C421,-231.789 421,-222.047 421,-213.069"/>
<polygon fill="black" stroke="black" points="424.5,-213.029 421,-203.029 417.5,-213.029 424.5,-213.029"/>
</g>
</g>
</svg>
