<?xml version="1.0" standalone="no"?>
<!DOCTYPE svg PUBLIC "-//W3C//DTD SVG 1.1//EN" "http://www.w3.org/Graphics/SVG/1.1/DTD/svg11.dtd">
<svg width="370" height="230" viewBox="0 -230 370 230" xmlns="http://www.w3.org/2000/svg" version="1.1">
<title>OpenSCAD Model</title>
<path d="
M 370,-230 L 0,-230 L 0,-0 L 370,-0 z
M 48.2219,-215.369 L 48.0178,-217.18 L 49.3064,-218.469 L 51.1172,-218.265 L 52.0868,-216.722 L 51.4849,-215.002
 L 49.7649,-214.4 z
M 11.7352,-178.883 L 11.5311,-180.694 L 12.8197,-181.982 L 14.6306,-181.778 L 15.6001,-180.235 L 14.9982,-178.515
 L 13.2782,-177.913 z
M 84.7086,-178.883 L 84.5045,-180.694 L 85.7931,-181.982 L 87.604,-181.778 L 88.5735,-180.235 L 87.9716,-178.515
 L 86.2516,-177.913 z
M 341.332,-172.932 L 340.6,-174.7 L 341.332,-176.468 L 343.1,-177.2 L 344.868,-176.468 L 345.6,-174.7
 L 344.868,-172.932 L 343.1,-172.2 z
M 181.832,-172.932 L 181.1,-174.7 L 181.832,-176.468 L 183.6,-177.2 L 185.368,-176.468 L 186.1,-174.7
 L 185.368,-172.932 L 183.6,-172.2 z
M 48.2219,-142.396 L 48.0178,-144.207 L 49.3064,-145.495 L 51.1173,-145.291 L 52.0868,-143.748 L 51.4849,-142.028
 L 49.7649,-141.427 z
M 22.308,-104.889 L 22.308,-106.711 L 23.7327,-107.847 L 25.5093,-107.442 L 26.3,-105.8 L 25.5093,-104.158
 L 23.7327,-103.753 z
M 73.908,-104.889 L 73.908,-106.711 L 75.3327,-107.847 L 77.1093,-107.442 L 77.9,-105.8 L 77.1093,-104.158
 L 75.3327,-103.753 z
M 22.308,-53.2888 L 22.308,-55.1112 L 23.7327,-56.2474 L 25.5093,-55.8419 L 26.3,-54.2 L 25.5093,-52.5582
 L 23.7327,-52.1527 z
M 73.908,-53.2888 L 73.908,-55.1112 L 75.3327,-56.2474 L 77.1093,-55.8419 L 77.9,-54.2 L 77.1093,-52.5582
 L 75.3327,-52.1527 z
M 181.832,-38.4322 L 181.1,-40.2 L 181.832,-41.9678 L 183.6,-42.7 L 185.368,-41.9678 L 186.1,-40.2
 L 185.368,-38.4322 L 183.6,-37.7 z
M 327.832,-32.4322 L 327.1,-34.2 L 327.832,-35.9678 L 329.6,-36.7 L 331.368,-35.9678 L 332.1,-34.2
 L 331.368,-32.4322 L 329.6,-31.7 z
M 241.064,-15.882 L 241.064,-17.048 L 242.285,-17.048 L 242.285,-15.882 z
M 210.925,-15.882 L 210.925,-17.048 L 212.146,-17.048 L 212.146,-15.882 z
M 59.8387,-6.91289 L 59.2215,-7.03549 L 58.6777,-7.23987 L 58.2075,-7.52599 L 57.8179,-7.89268 L 57.5164,-8.33774
 L 57.3029,-8.86118 L 57.1775,-9.463 L 58.4384,-9.57799 L 58.6609,-8.836 L 59.0835,-8.306 L 59.7059,-7.98799
 L 60.5285,-7.88199 L 60.9669,-7.91074 L 61.3555,-7.99699 L 61.694,-8.14075 L 61.9825,-8.342 L 62.2135,-8.59981
 L 62.3784,-8.91324 L 62.4774,-9.2823 L 62.5105,-9.70699 L 62.4728,-10.0802 L 62.36,-10.41 L 62.1718,-10.6962
 L 61.9084,-10.939 L 61.574,-11.1328 L 61.1727,-11.2712 L 60.7045,-11.3543 L 60.1694,-11.382 L 59.4754,-11.382
 L 59.4754,-12.44 L 60.1425,-12.44 L 60.6181,-12.4672 L 61.0372,-12.5487 L 61.3996,-12.6847 L 61.7055,-12.875
 L 61.9483,-13.1134 L 62.1217,-13.3935 L 62.2258,-13.7154 L 62.2605,-14.079 L 62.2321,-14.4399 L 62.1472,-14.7607
 L 62.0056,-15.0414 L 61.8074,-15.282 L 61.5535,-15.4754 L 61.2444,-15.6135 L 60.8804,-15.6964 L 60.4615,-15.724
 L 60.0753,-15.6981 L 59.728,-15.6205 L 59.4193,-15.4911 L 59.1495,-15.31 L 58.9256,-15.0823 L 58.754,-14.8122
 L 58.6346,-14.4998 L 58.5675,-14.145 L 57.3405,-14.24 L 57.4524,-14.7942 L 57.6522,-15.284 L 57.9399,-15.7092
 L 58.3155,-16.07 L 58.7655,-16.3579 L 59.2755,-16.5635 L 59.8455,-16.6869 L 60.4754,-16.728 L 61.1558,-16.6864
 L 61.756,-16.5615 L 62.2758,-16.3534 L 62.7155,-16.062 L 63.065,-15.6967 L 63.3147,-15.266 L 63.4645,-14.7697
 L 63.5145,-14.208 L 63.4823,-13.7733 L 63.386,-13.3812 L 63.2253,-13.0318 L 63.0005,-12.725 L 62.7148,-12.4629
 L 62.371,-12.2467 L 61.9688,-12.0764 L 61.5085,-11.952 L 61.5085,-11.925 L 62.0157,-11.8357 L 62.4635,-11.685
 L 62.8517,-11.4727 L 63.1805,-11.199 L 63.4425,-10.8753 L 63.6297,-10.5122 L 63.742,-10.1098 L 63.7794,-9.668
 L 63.7268,-9.03906 L 63.5687,-8.48524 L 63.3053,-8.00656 L 62.9364,-7.603 L 62.4699,-7.28317 L 61.9132,-7.05475
 L 61.2664,-6.91769 L 60.5294,-6.87201 z
M 64.8904,-7 L 64.8904,-7.862 L 65.0735,-8.24831 L 65.2757,-8.61124 L 65.497,-8.95081 L 65.7374,-9.267
 L 65.9906,-9.56424 L 66.2502,-9.84698 L 66.5161,-10.1152 L 66.7884,-10.369 L 67.0637,-10.6111 L 67.3374,-10.8442
 L 67.6097,-11.0686 L 68.1443,-11.495 L 68.3949,-11.706 L 68.6323,-11.917 L 68.8564,-12.128 L 69.064,-12.3415
 L 69.2507,-12.56 L 69.4165,-12.7835 L 69.5614,-13.012 L 69.6791,-13.2511 L 69.7632,-13.5055 L 69.8136,-13.7751
 L 69.8304,-14.06 L 69.8014,-14.4333 L 69.7144,-14.7622 L 69.5694,-15.0468 L 69.3664,-15.287 L 69.1124,-15.4782
 L 68.8132,-15.6147 L 68.4689,-15.6967 L 68.0794,-15.724 L 67.7051,-15.6975 L 67.3652,-15.618 L 67.0596,-15.4855
 L 66.7884,-15.3 L 66.5611,-15.0671 L 66.3859,-14.7912 L 66.263,-14.4725 L 66.1924,-14.111 L 64.9454,-14.226
 L 65.0574,-14.7697 L 65.2572,-15.255 L 65.5449,-15.6817 L 65.9204,-16.05 L 66.3704,-16.3466 L 66.8802,-16.5585
 L 67.4499,-16.6856 L 68.0794,-16.728 L 68.7616,-16.6852 L 69.3599,-16.557 L 69.8745,-16.3432 L 70.3054,-16.044
 L 70.6462,-15.6661 L 70.8897,-15.2162 L 71.0357,-14.6945 L 71.0844,-14.101 L 71.0685,-13.8224 L 71.0207,-13.5447
 L 70.941,-13.2679 L 70.8294,-12.992 L 70.6864,-12.7164 L 70.5122,-12.4407 L 70.3069,-12.1649 L 70.0704,-11.889
 L 69.7615,-11.5757 L 69.3377,-11.1867 L 68.799,-10.7222 L 68.1454,-10.182 L 67.7739,-9.86987 L 67.4424,-9.57349
 L 67.1509,-9.29286 L 66.8994,-9.028 L 66.6845,-8.77336 L 66.5019,-8.5235 L 66.3515,-8.27837 L 66.2334,-8.03799
 L 71.2344,-8.03799 L 71.2344,-7 z
M 317.826,-6.95058 L 317.155,-7.18625 L 316.585,-7.57906 L 316.119,-8.129 L 315.756,-8.83018 L 315.497,-9.67574
 L 315.342,-10.6657 L 315.29,-11.8 L 315.34,-12.9562 L 315.491,-13.9577 L 315.743,-14.8047 L 316.095,-15.497
 L 316.557,-16.0356 L 317.135,-16.4202 L 317.83,-16.6511 L 318.642,-16.728 L 319.433,-16.6502 L 320.113,-16.417
 L 320.682,-16.0282 L 321.14,-15.484 L 321.493,-14.7872 L 321.745,-13.941 L 321.896,-12.9452 L 321.946,-11.8
 L 321.893,-10.6714 L 321.734,-9.68449 L 321.47,-8.83937 L 321.099,-8.13599 L 320.626,-7.58299 L 320.052,-7.18799
 L 319.377,-6.951 L 318.601,-6.87201 z
M 319.12,-7.92937 L 319.553,-8.11049 L 319.913,-8.41237 L 320.201,-8.83499 L 320.422,-9.38255 L 320.579,-10.0592
 L 320.674,-10.8651 L 320.705,-11.8 L 320.675,-12.7656 L 320.585,-13.5885 L 320.435,-14.2686 L 320.225,-14.806
 L 319.946,-15.2137 L 319.589,-15.505 L 319.155,-15.6797 L 318.642,-15.738 L 318.116,-15.6806 L 317.67,-15.5085
 L 317.304,-15.2216 L 317.017,-14.82 L 316.801,-14.287 L 316.647,-13.606 L 316.555,-12.777 L 316.524,-11.8
 L 316.555,-10.8484 L 316.649,-10.0335 L 316.805,-9.35536 L 317.024,-8.814 L 317.311,-8.40056 L 317.672,-8.10524
 L 318.107,-7.92805 L 318.615,-7.86899 z
M 325.369,-6.95058 L 324.698,-7.18625 L 324.128,-7.57906 L 323.662,-8.129 L 323.299,-8.83018 L 323.04,-9.67574
 L 322.885,-10.6657 L 322.833,-11.8 L 322.883,-12.9562 L 323.034,-13.9577 L 323.286,-14.8047 L 323.638,-15.497
 L 324.099,-16.0356 L 324.678,-16.4202 L 325.373,-16.6511 L 326.185,-16.728 L 326.976,-16.6502 L 327.656,-16.417
 L 328.225,-16.0282 L 328.683,-15.484 L 329.036,-14.7872 L 329.288,-13.941 L 329.439,-12.9452 L 329.489,-11.8
 L 329.436,-10.6714 L 329.277,-9.68449 L 329.013,-8.83937 L 328.642,-8.13599 L 328.169,-7.58299 L 327.595,-7.18799
 L 326.92,-6.951 L 326.144,-6.87201 z
M 326.663,-7.92937 L 327.096,-8.11049 L 327.456,-8.41237 L 327.744,-8.83499 L 327.965,-9.38255 L 328.122,-10.0592
 L 328.217,-10.8651 L 328.248,-11.8 L 328.218,-12.7656 L 328.128,-13.5885 L 327.978,-14.2686 L 327.768,-14.806
 L 327.489,-15.2137 L 327.132,-15.505 L 326.698,-15.6797 L 326.185,-15.738 L 325.659,-15.6806 L 325.213,-15.5085
 L 324.847,-15.2216 L 324.56,-14.82 L 324.344,-14.287 L 324.19,-13.606 L 324.098,-12.777 L 324.067,-11.8
 L 324.098,-10.8484 L 324.192,-10.0335 L 324.348,-9.35536 L 324.567,-8.814 L 324.854,-8.40056 L 325.215,-8.10524
 L 325.65,-7.92805 L 326.158,-7.86899 z
M 246.757,-7 L 246.757,-15.478 L 243.464,-15.478 L 243.464,-16.536 L 251.343,-16.536 L 251.343,-15.478
 L 248.046,-15.478 L 248.046,-7 z
M 278.457,-7 L 278.457,-16.536 L 282.961,-16.536 L 283.724,-16.491 L 284.394,-16.356 L 284.972,-16.131
 L 285.458,-15.816 L 285.843,-15.4212 L 286.118,-14.9557 L 286.283,-14.4197 L 286.338,-13.813 L 286.3,-13.3036
 L 286.183,-12.8365 L 285.989,-12.4116 L 285.716,-12.029 L 285.376,-11.7009 L 284.976,-11.4395 L 284.518,-11.2449
 L 284,-11.117 L 286.719,-7 L 285.227,-7 L 282.738,-10.968 L 279.752,-10.968 L 279.752,-7
 z
M 283.372,-12.0217 L 283.798,-12.1107 L 284.166,-12.2592 L 284.475,-12.467 L 284.721,-12.7287 L 284.896,-13.038
 L 285.001,-13.3947 L 285.036,-13.799 L 285.001,-14.1889 L 284.894,-14.5295 L 284.717,-14.8209 L 284.468,-15.063
 L 284.153,-15.2533 L 283.776,-15.3892 L 283.336,-15.4708 L 282.833,-15.498 L 279.752,-15.498 L 279.752,-11.992
 L 282.887,-11.992 z
M 290.472,-7 L 290.472,-15.478 L 287.179,-15.478 L 287.179,-16.536 L 295.058,-16.536 L 295.058,-15.478
 L 291.761,-15.478 L 291.761,-7 z
M 300.062,-7 L 300.062,-16.536 L 306.873,-16.536 L 306.873,-15.478 L 301.357,-15.478 L 301.357,-11.928
 L 306.71,-11.928 L 306.71,-10.857 L 301.357,-10.857 L 301.357,-7 z
M 312.04,-7 L 312.04,-9.17299 L 307.523,-9.17299 L 307.523,-10.119 L 311.908,-16.536 L 313.193,-16.536
 L 313.193,-10.136 L 314.536,-10.136 L 314.536,-9.17299 L 313.193,-9.17299 L 313.193,-7 z
M 312.04,-15.159 L 312.023,-15.1217 L 311.927,-14.9432 L 311.766,-14.6553 L 311.694,-14.5322 L 311.634,-14.4328
 L 311.584,-14.357 L 309.125,-10.77 L 308.757,-10.271 L 308.648,-10.136 L 312.04,-10.136 z
M 26.141,-7 L 26.141,-16.536 L 27.436,-16.536 L 27.436,-12.504 L 32.618,-12.504 L 32.618,-16.536
 L 33.913,-16.536 L 33.913,-7 L 32.618,-7 L 32.618,-11.419 L 27.436,-11.419 L 27.436,-7
 z
M 45.7299,-7 L 45.7299,-16.536 L 47.0249,-16.536 L 47.0249,-8.058 L 51.8699,-8.058 L 51.8699,-7
 z
M 35.9349,-7 L 35.9349,-16.536 L 39.1009,-16.536 L 40.2475,-16.4601 L 41.2552,-16.2322 L 42.124,-15.8526
 L 42.8539,-15.321 L 43.4323,-14.6494 L 43.8454,-13.8497 L 44.0933,-12.9219 L 44.1759,-11.866 L 44.1398,-11.1515
 L 44.0314,-10.483 L 43.8508,-9.86049 L 43.5979,-9.284 L 43.2793,-8.76331 L 42.9002,-8.30724 L 42.4608,-7.9158
 L 41.9609,-7.58899 L 41.4106,-7.3313 L 40.8194,-7.14725 L 40.1876,-7.0368 L 39.5149,-7 z
M 39.876,-8.06674 L 40.3552,-8.153 L 40.8025,-8.29674 L 41.2179,-8.49799 L 41.5943,-8.75331 L 41.9242,-9.05925
 L 42.2077,-9.4158 L 42.4449,-9.823 L 42.6326,-10.2754 L 42.7667,-10.7667 L 42.8471,-11.2969 L 42.8739,-11.866
 L 42.8129,-12.6994 L 42.6299,-13.4275 L 42.3249,-14.0504 L 41.8979,-14.568 L 41.3554,-14.9749 L 40.7037,-15.2655
 L 39.9429,-15.4399 L 39.0729,-15.498 L 37.2299,-15.498 L 37.2299,-8.03799 L 39.3649,-8.03799 z
M 257.745,-6.90845 L 257.294,-7.01775 L 256.912,-7.19994 L 256.598,-7.45499 L 256.355,-7.77356 L 256.18,-8.14624
 L 256.076,-8.57306 L 256.041,-9.05399 L 256.088,-9.59 L 256.229,-10.06 L 256.464,-10.464 L 256.792,-10.802
 L 257.226,-11.0714 L 257.775,-11.2697 L 258.439,-11.3969 L 259.218,-11.453 L 260.871,-11.48 L 260.871,-11.882
 L 260.847,-12.3 L 260.776,-12.654 L 260.656,-12.944 L 260.489,-13.17 L 260.271,-13.3402 L 259.999,-13.4617
 L 259.672,-13.5347 L 259.291,-13.559 L 258.907,-13.5414 L 258.579,-13.4885 L 258.307,-13.4004 L 258.091,-13.277
 L 257.923,-13.1149 L 257.792,-12.9107 L 257.698,-12.6644 L 257.642,-12.376 L 256.367,-12.492 L 256.669,-13.3652
 L 257.261,-13.989 L 258.145,-14.3632 L 259.318,-14.488 L 259.968,-14.4483 L 260.533,-14.3292 L 261.011,-14.1308
 L 261.404,-13.853 L 261.711,-13.5001 L 261.93,-13.0762 L 262.061,-12.5816 L 262.105,-12.016 L 262.105,-8.851
 L 262.114,-8.59581 L 262.141,-8.37424 L 262.186,-8.18631 L 262.248,-8.032 L 262.336,-7.91168 L 262.456,-7.82574
 L 262.608,-7.77419 L 262.792,-7.75699 L 262.884,-7.75993 L 262.981,-7.76874 L 263.084,-7.78343 L 263.193,-7.80399
 L 263.193,-7.045 L 262.961,-6.99731 L 262.726,-6.96326 L 262.489,-6.94283 L 262.249,-6.936 L 261.933,-6.95831
 L 261.663,-7.02524 L 261.439,-7.13681 L 261.261,-7.293 L 261.123,-7.49724 L 261.019,-7.752 L 260.948,-8.05724
 L 260.911,-8.41299 L 260.87,-8.41299 L 260.626,-8.02274 L 260.363,-7.69398 L 260.08,-7.42674 L 259.778,-7.22099
 L 259.45,-7.0683 L 259.089,-6.95926 L 258.694,-6.89381 L 258.265,-6.87201 z
M 258.87,-7.80606 L 259.179,-7.86324 L 259.469,-7.95856 L 259.74,-8.092 L 259.989,-8.25868 L 260.21,-8.45374
 L 260.403,-8.67719 L 260.568,-8.92899 L 260.701,-9.19687 L 260.795,-9.46849 L 260.852,-9.74387 L 260.871,-10.023
 L 260.871,-10.626 L 259.53,-10.599 L 259.124,-10.5827 L 258.77,-10.5477 L 258.468,-10.4942 L 258.219,-10.422
 L 258.009,-10.3299 L 257.825,-10.2157 L 257.667,-10.0794 L 257.534,-9.92099 L 257.43,-9.7388 L 257.356,-9.53024
 L 257.311,-9.2953 L 257.296,-9.034 L 257.316,-8.75249 L 257.377,-8.50499 L 257.478,-8.29149 L 257.619,-8.112
 L 257.798,-7.9698 L 258.012,-7.86824 L 258.26,-7.80731 L 258.542,-7.78699 z
M 266.032,-6.93288 L 265.396,-7.11549 L 264.852,-7.41986 L 264.399,-7.84599 L 264.043,-8.38881 L 263.789,-9.04324
 L 263.636,-9.80931 L 263.585,-10.687 L 263.636,-11.5585 L 263.789,-12.3202 L 264.045,-12.9721 L 264.402,-13.514
 L 264.855,-13.9401 L 265.397,-14.2445 L 266.027,-14.4271 L 266.746,-14.488 L 267.287,-14.4512 L 267.78,-14.341
 L 268.225,-14.1572 L 268.622,-13.9 L 268.96,-13.5782 L 269.229,-13.201 L 269.429,-12.7682 L 269.559,-12.28
 L 268.305,-12.184 L 268.239,-12.4776 L 268.136,-12.7392 L 267.996,-12.9691 L 267.819,-13.167 L 267.604,-13.3267
 L 267.348,-13.4407 L 267.051,-13.5092 L 266.712,-13.532 L 266.257,-13.4917 L 265.87,-13.3707 L 265.55,-13.1692
 L 265.297,-12.887 L 265.106,-12.5093 L 264.969,-12.0212 L 264.887,-11.4228 L 264.86,-10.714 L 264.889,-10.0281
 L 264.976,-9.43724 L 265.121,-8.94156 L 265.324,-8.54099 L 265.586,-8.23212 L 265.907,-8.01149 L 266.287,-7.87912
 L 266.726,-7.83499 L 267.041,-7.8575 L 267.328,-7.92499 L 267.589,-8.03749 L 267.822,-8.19499 L 268.022,-8.39967
 L 268.179,-8.65274 L 268.294,-8.95418 L 268.366,-9.30399 L 269.6,-9.22198 L 269.49,-8.71306 L 269.302,-8.25824
 L 269.037,-7.85756 L 268.694,-7.51099 L 268.287,-7.23143 L 267.829,-7.03174 L 267.32,-6.91194 L 266.759,-6.87201
 z
M 213.977,-7 L 213.977,-12.789 L 213.974,-13.369 L 213.966,-13.8242 L 213.954,-14.1546 L 213.936,-14.36
 L 215.089,-14.36 L 215.096,-14.2967 L 215.125,-13.7109 L 215.144,-13.095 L 215.164,-13.095 L 215.368,-13.4558
 L 215.586,-13.7572 L 215.819,-13.9993 L 216.067,-14.182 L 216.335,-14.3159 L 216.632,-14.4115 L 216.957,-14.4689
 L 217.31,-14.488 L 217.705,-14.4672 L 218.057,-14.4047 L 218.365,-14.3007 L 218.63,-14.155 L 218.854,-13.9639
 L 219.042,-13.7235 L 219.192,-13.4339 L 219.306,-13.095 L 219.326,-13.095 L 219.526,-13.4396 L 219.746,-13.7322
 L 219.987,-13.9731 L 220.247,-14.162 L 220.531,-14.3046 L 220.843,-14.4065 L 221.184,-14.4676 L 221.554,-14.488
 L 222.073,-14.4502 L 222.516,-14.3367 L 222.883,-14.1477 L 223.174,-13.883 L 223.395,-13.5325 L 223.553,-13.085
 L 223.648,-12.5405 L 223.68,-11.899 L 223.68,-7 L 222.473,-7 L 222.473,-11.662 L 222.454,-12.1543
 L 222.4,-12.5642 L 222.308,-12.8918 L 222.181,-13.137 L 222.005,-13.3155 L 221.771,-13.443 L 221.478,-13.5195
 L 221.127,-13.545 L 220.748,-13.5078 L 220.414,-13.3962 L 220.124,-13.2103 L 219.88,-12.95 L 219.685,-12.6217
 L 219.546,-12.2307 L 219.462,-11.7772 L 219.435,-11.261 L 219.435,-7 L 218.228,-7 L 218.228,-11.662
 L 218.209,-12.1543 L 218.155,-12.5642 L 218.063,-12.8918 L 217.936,-13.137 L 217.76,-13.3155 L 217.526,-13.443
 L 217.234,-13.5195 L 216.883,-13.545 L 216.512,-13.5076 L 216.182,-13.3955 L 215.894,-13.2086 L 215.646,-12.947
 L 215.447,-12.6174 L 215.304,-12.2265 L 215.219,-11.7744 L 215.191,-11.261 L 215.191,-7 z
M 226.606,-6.90845 L 226.155,-7.01775 L 225.773,-7.19994 L 225.46,-7.45499 L 225.216,-7.77356 L 225.042,-8.14624
 L 224.937,-8.57306 L 224.903,-9.05399 L 224.949,-9.59 L 225.09,-10.06 L 225.325,-10.464 L 225.654,-10.802
 L 226.087,-11.0714 L 226.636,-11.2697 L 227.3,-11.3969 L 228.08,-11.453 L 229.733,-11.48 L 229.733,-11.882
 L 229.709,-12.3 L 229.637,-12.654 L 229.518,-12.944 L 229.351,-13.17 L 229.133,-13.3402 L 228.861,-13.4617
 L 228.534,-13.5347 L 228.153,-13.559 L 227.768,-13.5414 L 227.44,-13.4885 L 227.168,-13.4004 L 226.953,-13.277
 L 226.784,-13.1149 L 226.653,-12.9107 L 226.56,-12.6644 L 226.504,-12.376 L 225.229,-12.492 L 225.53,-13.3652
 L 226.123,-13.989 L 227.006,-14.3632 L 228.18,-14.488 L 228.83,-14.4483 L 229.394,-14.3292 L 229.873,-14.1308
 L 230.266,-13.853 L 230.572,-13.5001 L 230.791,-13.0762 L 230.923,-12.5816 L 230.967,-12.016 L 230.967,-8.851
 L 230.975,-8.59581 L 231.002,-8.37424 L 231.047,-8.18631 L 231.11,-8.032 L 231.197,-7.91168 L 231.317,-7.82574
 L 231.469,-7.77419 L 231.654,-7.75699 L 231.745,-7.75993 L 231.842,-7.76874 L 231.945,-7.78343 L 232.055,-7.80399
 L 232.055,-7.045 L 231.822,-6.99731 L 231.588,-6.96326 L 231.35,-6.94283 L 231.111,-6.936 L 230.794,-6.95831
 L 230.524,-7.02524 L 230.3,-7.13681 L 230.123,-7.293 L 229.985,-7.49724 L 229.881,-7.752 L 229.81,-8.05724
 L 229.773,-8.41299 L 229.732,-8.41299 L 229.487,-8.02274 L 229.224,-7.69398 L 228.941,-7.42674 L 228.64,-7.22099
 L 228.312,-7.0683 L 227.95,-6.95926 L 227.555,-6.89381 L 227.127,-6.87201 z
M 227.731,-7.80606 L 228.04,-7.86324 L 228.33,-7.95856 L 228.602,-8.092 L 228.85,-8.25868 L 229.071,-8.45374
 L 229.264,-8.67719 L 229.43,-8.92899 L 229.562,-9.19687 L 229.657,-9.46849 L 229.714,-9.74387 L 229.733,-10.023
 L 229.733,-10.626 L 228.392,-10.599 L 227.985,-10.5827 L 227.631,-10.5477 L 227.33,-10.4942 L 227.081,-10.422
 L 226.87,-10.3299 L 226.686,-10.2157 L 226.528,-10.0794 L 226.396,-9.92099 L 226.291,-9.7388 L 226.217,-9.53024
 L 226.172,-9.2953 L 226.158,-9.034 L 226.178,-8.75249 L 226.238,-8.50499 L 226.339,-8.29149 L 226.481,-8.112
 L 226.66,-7.9698 L 226.873,-7.86824 L 227.121,-7.80731 L 227.404,-7.78699 z
M 232.813,-7 L 232.813,-12.646 L 232.81,-13.0437 L 232.802,-13.462 L 232.789,-13.9007 L 232.772,-14.36
 L 233.925,-14.36 L 233.965,-13.3565 L 233.975,-13.0426 L 233.979,-12.854 L 234.006,-12.854 L 234.156,-13.2877
 L 234.318,-13.647 L 234.49,-13.9317 L 234.674,-14.142 L 234.882,-14.2934 L 235.129,-14.4015 L 235.415,-14.4664
 L 235.74,-14.488 L 235.861,-14.4837 L 235.984,-14.471 L 236.107,-14.4497 L 236.232,-14.42 L 236.232,-13.301
 L 236.1,-13.3307 L 235.948,-13.352 L 235.776,-13.3647 L 235.585,-13.369 L 235.229,-13.328 L 234.919,-13.205
 L 234.653,-13 L 234.432,-12.713 L 234.257,-12.3495 L 234.133,-11.9152 L 234.058,-11.41 L 234.034,-10.834
 L 234.034,-7 z
M 251.892,-7 L 251.892,-12.646 L 251.889,-13.0437 L 251.881,-13.462 L 251.869,-13.9007 L 251.851,-14.36
 L 253.004,-14.36 L 253.044,-13.3565 L 253.054,-13.0426 L 253.058,-12.854 L 253.085,-12.854 L 253.235,-13.2877
 L 253.397,-13.647 L 253.569,-13.9317 L 253.753,-14.142 L 253.961,-14.2934 L 254.208,-14.4015 L 254.494,-14.4664
 L 254.819,-14.488 L 254.94,-14.4837 L 255.063,-14.471 L 255.186,-14.4497 L 255.311,-14.42 L 255.311,-13.301
 L 255.179,-13.3307 L 255.027,-13.352 L 254.856,-13.3647 L 254.664,-13.369 L 254.308,-13.328 L 253.998,-13.205
 L 253.732,-13 L 253.511,-12.713 L 253.336,-12.3495 L 253.212,-11.9152 L 253.137,-11.41 L 253.113,-10.834
 L 253.113,-7 z
M 74.8961,-6.93263 L 74.2261,-7.11449 L 73.6536,-7.41762 L 73.1784,-7.842 L 72.8052,-8.38649 L 72.5386,-9.049
 L 72.3787,-9.8295 L 72.3254,-10.728 L 72.3787,-11.5844 L 72.5386,-12.3347 L 72.8052,-12.9789 L 73.1784,-13.517
 L 73.6506,-13.9418 L 74.2141,-14.2452 L 74.8691,-14.4273 L 75.6154,-14.488 L 77.0342,-14.2437 L 78.0476,-13.5107
 L 78.6557,-12.2892 L 78.8584,-10.579 L 78.8584,-10.416 L 73.6074,-10.416 L 73.6401,-9.82193 L 73.7384,-9.29974
 L 73.9021,-8.84943 L 74.1314,-8.47099 L 74.424,-8.17174 L 74.7769,-7.95799 L 75.19,-7.82974 L 75.6634,-7.78699
 L 76.0421,-7.80705 L 76.3811,-7.86725 L 76.6806,-7.96756 L 76.9404,-8.10799 L 77.161,-8.27911 L 77.3429,-8.4715
 L 77.486,-8.68512 L 77.5904,-8.92 L 78.6614,-8.614 L 78.2269,-7.85187 L 77.5824,-7.3075 L 76.7279,-6.98088
 L 75.6634,-6.87201 z
M 77.5211,-11.8951 L 77.3971,-12.3592 L 77.2246,-12.7446 L 77.0034,-13.051 L 76.7316,-13.285 L 76.4061,-13.4522
 L 76.0271,-13.5526 L 75.5944,-13.586 L 75.172,-13.5487 L 74.7959,-13.437 L 74.466,-13.2507 L 74.1824,-12.99
 L 73.9519,-12.6641 L 73.7814,-12.2825 L 73.6709,-11.8451 L 73.6204,-11.352 L 77.5964,-11.352 z
M 272.936,-6.93263 L 272.266,-7.11449 L 271.694,-7.41762 L 271.218,-7.842 L 270.845,-8.38649 L 270.579,-9.049
 L 270.419,-9.8295 L 270.365,-10.728 L 270.419,-11.5844 L 270.579,-12.3347 L 270.845,-12.9789 L 271.218,-13.517
 L 271.691,-13.9418 L 272.254,-14.2452 L 272.909,-14.4273 L 273.655,-14.488 L 275.074,-14.2437 L 276.088,-13.5107
 L 276.696,-12.2892 L 276.898,-10.579 L 276.898,-10.416 L 271.647,-10.416 L 271.68,-9.82193 L 271.778,-9.29974
 L 271.942,-8.84943 L 272.171,-8.47099 L 272.464,-8.17174 L 272.817,-7.95799 L 273.23,-7.82974 L 273.703,-7.78699
 L 274.082,-7.80705 L 274.421,-7.86725 L 274.721,-7.96756 L 274.98,-8.10799 L 275.201,-8.27911 L 275.383,-8.4715
 L 275.526,-8.68512 L 275.63,-8.92 L 276.701,-8.614 L 276.267,-7.85187 L 275.622,-7.3075 L 274.768,-6.98088
 L 273.703,-6.87201 z
M 275.561,-11.8951 L 275.437,-12.3592 L 275.265,-12.7446 L 275.043,-13.051 L 274.772,-13.285 L 274.446,-13.4522
 L 274.067,-13.5526 L 273.634,-13.586 L 273.212,-13.5487 L 272.836,-13.437 L 272.506,-13.2507 L 272.222,-12.99
 L 271.992,-12.6641 L 271.821,-12.2825 L 271.711,-11.8451 L 271.66,-11.352 L 275.636,-11.352 z
M 210.925,-7 L 210.925,-14.36 L 212.146,-14.36 L 212.146,-7 z
M 241.064,-7 L 241.064,-14.36 L 242.285,-14.36 L 242.285,-7 z
M 295.017,-10.139 L 295.017,-11.224 L 298.395,-11.224 L 298.395,-10.139 z
M 52.7458,-10.139 L 52.7458,-11.224 L 56.1239,-11.224 L 56.1239,-10.139 z
" stroke="black" fill="lightgray" stroke-width="0.5"/></svg>
